<svg width="36" height="36" viewBox="0 0 36 36" fill="none" xmlns="http://www.w3.org/2000/svg">
<rect width="36" height="36" rx="10.5366" fill="url(#paint0_radial_987_36062)"/>
<path d="M15.4491 11.715C16.4349 10.7291 18.0333 10.7291 19.0191 11.715C20.0049 12.7008 20.0049 14.2992 19.0191 15.285L10.0164 24.2877C9.0306 25.2735 7.43224 25.2735 6.44641 24.2877C5.46057 23.3018 5.46057 21.7035 6.44641 20.7176L15.4491 11.715Z" fill="#F2EFF6"/>
<path d="M23.9234 11.715C24.9092 10.7291 26.5076 10.7291 27.4934 11.715C28.4793 12.7008 28.4793 14.2992 27.4934 15.285L18.4907 24.2877C17.5049 25.2735 15.9066 25.2735 14.9207 24.2877C13.9349 23.3018 13.9349 21.7035 14.9207 20.7176L23.9234 11.715Z" fill="#F2EFF6"/>
<path d="M23.1828 14.3368C23.1828 12.725 24.4894 11.4184 26.1012 11.4184C27.2778 11.4184 28.2316 12.3722 28.2316 13.5488V22.5038C28.2316 23.8979 27.1014 25.0282 25.7072 25.0282C24.313 25.0282 23.1828 23.8979 23.1828 22.5038V14.3368Z" fill="#F2EFF6"/>
<defs>
<radialGradient id="paint0_radial_987_36062" cx="0" cy="0" r="1" gradientUnits="userSpaceOnUse" gradientTransform="translate(18 17.6707) rotate(49.0856) scale(32.6789 26.7905)">
<stop stop-color="#563ADC"/>
<stop offset="1" stop-color="#884DE8"/>
</radialGradient>
</defs>
</svg>
