<svg width="19" height="18" viewBox="0 0 19 18" fill="none" xmlns="http://www.w3.org/2000/svg">
<g clip-path="url(#clip0_1085_38035)">
<mask id="mask0_1085_38035" style="mask-type:luminance" maskUnits="userSpaceOnUse" x="0" y="0" width="19" height="18">
<path d="M18.4109 0H0.589108V18H18.4109V0Z" fill="white"/>
</mask>
<g mask="url(#mask0_1085_38035)">
<path d="M0.5 8.64C0.5 4.56707 0.5 2.5306 1.7653 1.2653C3.0306 0 5.06707 0 9.14 0H9.86C13.9329 0 15.9694 0 17.2347 1.2653C18.5 2.5306 18.5 4.56707 18.5 8.64V9.36C18.5 13.4329 18.5 15.4694 17.2347 16.7347C15.9694 18 13.9329 18 9.86 18H9.14C5.06707 18 3.0306 18 1.7653 16.7347C0.5 15.4694 0.5 13.4329 0.5 9.36V8.64Z" fill="#0077FF"/>
<path d="M10.0775 12.9676C5.97502 12.9676 3.63504 10.1551 3.53754 5.4751H5.59254C5.66004 8.91009 7.17501 10.3651 8.375 10.6651V5.4751H10.3101V8.43757C11.4951 8.31008 12.7399 6.9601 13.1599 5.4751H15.095C14.7725 7.3051 13.4225 8.65509 12.4625 9.21008C13.4225 9.66008 14.96 10.8376 15.545 12.9676H13.415C12.9575 11.5426 11.8176 10.4401 10.3101 10.2901V12.9676H10.0775Z" fill="white"/>
</g>
</g>
<defs>
<clipPath id="clip0_1085_38035">
<rect width="18" height="18" fill="white" transform="translate(0.5)"/>
</clipPath>
</defs>
</svg>
